<svg width="600" height="600" viewBox="0 0 600 600" fill="none" xmlns="http://www.w3.org/2000/svg">
<path fill-rule="evenodd" clip-rule="evenodd" d="M30.9219 450.734V362.867L299.991 513.113V599.997L30.9219 450.734Z" fill="#863EFF"/>
<path fill-rule="evenodd" clip-rule="evenodd" d="M569.045 450.734V362.867L299.976 513.113V599.997L569.045 450.734Z" fill="#C37AFF"/>
<path fill-rule="evenodd" clip-rule="evenodd" d="M569.045 238.109V150.243L299.976 300.488V387.372L569.045 238.109Z" fill="#C37AFF"/>
<path fill-rule="evenodd" clip-rule="evenodd" d="M569.075 362.862L300.005 513.108L165.47 312.253L300.005 387.376L508.149 271.906L569.075 362.862Z" fill="#4A30DD"/>
<path fill-rule="evenodd" clip-rule="evenodd" d="M299.991 513.113L165.457 312.249L299.991 387.372V300.488L30.9219 150.243V237.126L165.457 437.982L299.991 513.113Z" fill="#863EFF"/>
<path fill-rule="evenodd" clip-rule="evenodd" d="M30.9219 150.243L299.991 300.488L569.061 150.25L299.991 0.00390625L30.9219 150.243Z" fill="#AE4BFF"/>
<path fill-rule="evenodd" clip-rule="evenodd" d="M30.9219 362.867L92.2157 328.633L165.457 437.982L30.9219 362.867Z" fill="#4A30DD"/>
</svg>
